# xmcd
#
# Track frame offsets: 
#        150
#        20417
#        44497
#        71412
#        94100
#        112277
#        136715
#        154460
#        178192
#        195502
#        216950
#        236247
#        267435
#
# Disc length: 3817 seconds
#
# Revision: 0
# Processed by: cddbd v1.4PL0 Copyright (c) Steve Scherf et al.
# Submitted via: ExactAudioCopy v0.90b4
#
DISCID=c40ee70d
DTITLE=Mississippi Charles Bevel - Not of Seasons
DYEAR=2000
DGENRE=Blues
TTITLE0=I'm a Lover
TTITLE1=Dreams
TTITLE2=I heard a Voice
TTITLE3=Tuesday Night
TTITLE4=If I Reach Out
TTITLE5=It  Ain't Magic
TTITLE6=Jesus Gone Away
TTITLE7=Have You Ever Lost a Friend
TTITLE8=Not of Seasons
TTITLE9=The Ones Who Love
TTITLE10=Woman
TTITLE11=There is a Land
TTITLE12=You Have Got the Power
EXTD=
EXTT0=
EXTT1=
EXTT2=
EXTT3=
EXTT4=
EXTT5=
EXTT6=
EXTT7=
EXTT8=
EXTT9=
EXTT10=
EXTT11=
EXTT12=
PLAYORDER=
